<?xml version="1.0" standalone="no"?>
<!DOCTYPE svg PUBLIC "-//W3C//DTD SVG 20010904//EN"
 "http://www.w3.org/TR/2001/REC-SVG-20010904/DTD/svg10.dtd">
<svg version="1.0" xmlns="http://www.w3.org/2000/svg"
 width="100.000000pt" height="100.000000pt" viewBox="0 0 100.000000 100.000000"
 preserveAspectRatio="xMidYMid meet">
<metadata>
Created by potrace 1.15, written by Peter Selinger 2001-2017
</metadata>
<g transform="translate(0.000000,100.000000) scale(0.100000,-0.100000)"
fill="#000000" stroke="none">
<path d="M397 993 c-4 -3 -7 -67 -7 -140 0 -133 0 -135 -27 -162 -16 -15 -73
-53 -128 -83 -182 -103 -235 -171 -235 -302 0 -88 21 -136 83 -193 59 -54 138
-79 211 -67 45 8 56 6 96 -16 63 -35 148 -35 210 1 37 20 52 23 80 17 181 -41
351 132 310 316 -6 27 -16 58 -22 69 -28 54 -110 123 -220 188 -64 38 -124 79
-132 91 -12 17 -16 50 -16 143 l0 120 -27 12 c-30 12 -165 18 -176 6z m153
-165 c0 -83 4 -117 16 -137 17 -29 65 -64 179 -129 165 -95 223 -186 194 -304
-17 -73 -85 -140 -157 -158 -29 -6 -63 -9 -76 -6 -24 6 -24 6 -8 38 28 54 21
186 -13 275 -32 81 -88 163 -110 163 -30 0 -26 -29 10 -82 47 -72 75 -147 82
-223 5 -53 2 -71 -17 -110 -54 -112 -187 -135 -272 -48 -55 56 -65 108 -43
208 24 112 24 130 0 130 -47 0 -80 -242 -42 -312 16 -31 16 -32 -4 -38 -43
-14 -129 15 -177 59 -61 55 -82 165 -47 239 25 53 97 113 210 177 53 30 112
72 131 93 l34 37 0 119 c0 133 -1 131 78 122 l32 -3 0 -110z"/>
</g>
</svg>
